# xmcd CD database file
#
# Track frame offsets:
#	150
#	6332
#	19210
#	34793
#	47978
#	76380
#	97143
#	114107
#	123809
#	135195
#	145304
#	158726
#
# Disc length: 2860 seconds
#
# Revision: 0
# Processed by: cddbd v1.4PL0 Copyright (c) Steve Scherf et al.
# Submitted via: CDex 1.50beta10
#
DISCID=930b2a0c
DTITLE=Unseasonably Cool (featuring Laura Schlieske) - Hot Jazz fom the Northland
DYEAR=1999
DGENRE=Jazz
TTITLE0=Zulu Confirmation
TTITLE1=Is You Is, Or is you Ain't
TTITLE2=The Girl From Ipanema
TTITLE3=I'm Beginning To See The Light
TTITLE4=In a Mellotone
TTITLE5=Summertime
TTITLE6=Serenade In Blue
TTITLE7=Tangerine
TTITLE8=Ladybird
TTITLE9=Close Your Eyes
TTITLE10=Stardust
TTITLE11=My Funny Valentine
EXTD=YEAR: 1999
EXTT0=
EXTT1=
EXTT2=
EXTT3=
EXTT4=
EXTT5=
EXTT6=
EXTT7=
EXTT8=
EXTT9=
EXTT10=
EXTT11=
PLAYORDER=
